Coordinates
version=1
nRows=10
nColumns=22
inDegrees=yes

Units are S.I. units (second, meters, Newtons, ...)
If the header above contains a line with 'inDegrees', this indicates whether rotational values are in degrees (yes) or radians (no).

endheader
time	pelvis_tilt	pelvis_list	pelvis_rotation	pelvis_tx	pelvis_ty	pelvis_tz	hip_flexion_r	hip_adduction_r	hip_rotation_r	knee_angle_r	ankle_angle_r	subtalar_angle_r	hip_flexion_l	hip_adduction_l	hip_rotation_l	knee_angle_l	ankle_angle_l	subtalar_angle_l	lumbar_extension	lumbar_bending	lumbar_rotation
      1.62000000	     -5.50054009	      7.03986513	   -209.25063725	     -0.62540371	      0.93509986	      0.92864791	    -11.64404094	     15.40402333	     10.09120146	    -14.84756707	     14.03907576	    -11.12162372	     21.86003265	    -11.27610043	     -0.24049146	    -36.54665364	     14.30648553	    -12.24647030	    -14.18774852	      5.99638517	     -7.66795161
      1.63000000	     -5.20709550	      6.90412098	   -210.49171240	     -0.63282131	      0.93298556	      0.92308047	    -11.76333814	     15.22962935	     11.09326374	    -15.57304850	     14.76869529	    -11.30940713	     22.11913972	    -11.00072643	     -0.84748572	    -33.46042548	     13.84799477	    -10.47457553	    -14.00843383	      5.94375314	     -7.35043896
      1.64000000	     -4.94045411	      6.73867163	   -211.70370384	     -0.64035369	      0.93079716	      0.91749789	    -11.87698937	     15.02396094	     12.05832447	    -16.33514064	     15.51324803	    -11.47999075	     22.30083794	    -10.66105455	     -1.42015222	    -30.43676616	     13.41766391	     -8.62177097	    -13.82428620	      5.86362457	     -7.06589098
      1.65000000	     -4.68647347	      6.52718907	   -212.87118496	     -0.64800848	      0.92852263	      0.91192704	    -11.94008154	     14.77973293	     12.89100722	    -17.16107863	     16.23768228	    -11.65059717	     22.45633067	    -10.24228788	     -1.90844883	    -27.54896886	     12.97468449	     -6.72913552	    -13.60904887	      5.75026743	     -6.81414522
      1.66000000	     -4.47033915	      6.28975590	   -213.99323731	     -0.65578939	      0.92624234	      0.90632996	    -12.00807506	     14.49958423	     13.62686476	    -18.01156174	     16.92030345	    -11.80895038	     22.56898404	     -9.76051221	     -2.31534457	    -24.86937071	     12.58137963	     -4.92392675	    -13.39727400	      5.60350174	     -6.58889341
      1.67000000	     -4.30740148	      6.04535905	   -215.07165262	     -0.66368038	      0.92402095	      0.90068316	    -12.10644615	     14.18726637	     14.25967317	    -18.88147068	     17.56766301	    -11.94398512	     22.63401320	     -9.23357473	     -2.64253495	    -22.47214179	     12.27290640	     -3.29602529	    -13.21789057	      5.42589413	     -6.35795495
      1.68000000	     -4.20088694	      5.77825442	   -216.09311624	     -0.67171292	      0.92189188	      0.89494532	    -12.24065216	     13.82782533	     14.80883560	    -19.74379868	     18.11036981	    -12.06372511	     22.68047210	     -8.65413337	     -2.92183133	    -20.43255695	     12.04785286	     -1.83239209	    -13.04994234	      5.19775968	     -6.18251952
      1.69000000	     -4.15538363	      5.50578037	   -217.06424949	     -0.67984795	      0.91990738	      0.88909417	    -12.41177826	     13.43086562	     15.26612426	    -20.61629644	     18.54536971	    -12.15323264	     22.70914227	     -8.04351821	     -3.16790115	    -18.80688769	     11.90881961	     -0.59931370	    -12.91417641	      4.92414532	     -6.02081862
      1.70000000	     -4.18021146	      5.25310717	   -217.98312556	     -0.68807798	      0.91813071	      0.88312279	    -12.64037813	     13.00975122	     15.64393688	    -21.50053184	     18.90635701	    -12.18406271	     22.69920020	     -7.41793198	     -3.36903330	    -17.61917036	     11.86659000	      0.36136178	    -12.83842780	      4.61877062	     -5.84751133
      1.71000000	     -4.25510553	      5.00137703	   -218.84538225	     -0.69640856	      0.91654915	      0.87700882	    -12.88784774	     12.56528896	     15.95746836	    -22.40931451	     19.11515119	    -12.14458790	     22.68662148	     -6.77530897	     -3.51645961	    -16.88833985	     11.86802505	      1.07450640	    -12.78207552	      4.27397532	     -5.68734370
